<svg xmlns="http://www.w3.org/2000/svg" viewBox="0 0 64 64" role="img" aria-labelledby="title">
<title>Spotly</title>
<rect width="64" height="64" rx="16" fill="#147A4A"/>
<path d="M42.8 18.2c-3.2-2.1-6.7-3.2-10.7-3.2-7.4 0-12.5 3.9-12.5 9.8 0 5.3 3.4 8.2 10.6 9.9l3.8.8c3.1.7 4.5 1.8 4.5 3.5 0 2.2-2.2 3.6-5.7 3.6-4.4 0-8.2-1.5-11.6-4.4l-4.5 6.2c4.3 3.7 9.7 5.6 16 5.6 8.3 0 13.8-4.3 13.8-10.9 0-5.4-3.4-8.5-10.7-10.1l-3.8-.8c-3-.7-4.3-1.6-4.3-3.3 0-1.9 1.9-3.1 4.8-3.1 3.3 0 6.4 1 9.2 2.9l4.1-6.5z" fill="white"/>
</svg>